<svg width="18" height="30" viewBox="0 0 18 30" fill="none" xmlns="http://www.w3.org/2000/svg">
<path id="Vector" d="M0.527648 8.04996L7.71161 0.550157C8.02103 0.227058 8.43289 0.0327841 8.86991 0.00378714C9.30693 -0.0252099 9.73909 0.113063 10.0853 0.392661L10.2543 0.548282L17.4581 8.04808C17.7878 8.38382 17.9814 8.83876 17.9987 9.31897C18.0161 9.79919 17.8559 10.268 17.5513 10.6287C17.2467 10.9893 16.8209 11.2143 16.3619 11.2571C15.9028 11.2999 15.4455 11.1572 15.0844 10.8586L14.9154 10.703L10.792 6.4075V28.1269C10.7919 28.5862 10.6302 29.0294 10.3376 29.3726C10.0449 29.7158 9.64157 29.935 9.20415 29.9887L8.99196 30C8.55123 29.9999 8.1259 29.831 7.79671 29.5255C7.46753 29.2199 7.25743 28.799 7.20631 28.3425L7.19372 28.1269V6.39438L3.07036 10.7011C2.76094 11.0242 2.34908 11.2185 1.91206 11.2475C1.47504 11.2765 1.04288 11.1382 0.696683 10.8586L0.527648 10.7011C0.217768 10.3785 0.0314428 9.94909 0.00363219 9.49343C-0.0241784 9.03776 0.108437 8.58717 0.376596 8.2262L0.527648 8.04996Z" fill="#575757"/>
</svg>
