<svg width="38" height="38" viewBox="0 0 38 38" fill="none" xmlns="http://www.w3.org/2000/svg">
<g id="mdi-light:delete">
<path id="Vector" d="M28.5002 30.0833C28.5002 31.3431 27.9997 32.5513 27.1089 33.4421C26.2181 34.3329 25.0099 34.8333 23.7502 34.8333H12.6668C11.4071 34.8333 10.1989 34.3329 9.30807 33.4421C8.41727 32.5513 7.91683 31.3431 7.91683 30.0833V11.0833H6.3335V6.33333H13.4585L15.0418 4.75H21.3752L22.9585 6.33333H30.0835V11.0833H28.5002V30.0833ZM9.50016 11.0833V30.0833C9.50016 30.9232 9.83379 31.7286 10.4277 32.3225C11.0215 32.9164 11.827 33.25 12.6668 33.25H23.7502C24.59 33.25 25.3955 32.9164 25.9893 32.3225C26.5832 31.7286 26.9168 30.9232 26.9168 30.0833V11.0833H9.50016ZM28.5002 9.5V7.91667H22.1668L20.5835 6.33333H15.8335L14.2502 7.91667H7.91683V9.5H28.5002ZM12.6668 14.25H14.2502V30.0833H12.6668V14.25ZM22.1668 14.25H23.7502V30.0833H22.1668V14.25Z" fill="#575757"/>
</g>
</svg>
