<svg width="29" height="25" viewBox="0 0 29 29" fill="none" xmlns="http://www.w3.org/2000/svg">
<path id="Vector" d="M16.1111 0C16.5218 0.000455473 16.9167 0.157694 17.2153 0.439589C17.5139 0.721484 17.6936 1.10676 17.7177 1.51669C17.7417 1.92663 17.6084 2.33028 17.3448 2.64517C17.0812 2.96007 16.7074 3.16244 16.2996 3.21094L16.1111 3.22222H3.22222V25.7778H25.7778V12.8889C25.7782 12.4782 25.9355 12.0833 26.2174 11.7847C26.4993 11.4861 26.8845 11.3064 27.2945 11.2823C27.7044 11.2583 28.1081 11.3916 28.423 11.6552C28.7379 11.9188 28.9402 12.2926 28.9887 12.7004L29 12.8889V25.7778C29.0003 26.5907 28.6932 27.3737 28.1405 27.9698C27.5877 28.5659 26.8301 28.931 26.0194 28.9919L25.7778 29H3.22222C2.40929 29.0003 1.62631 28.6932 1.03023 28.1405C0.434147 27.5877 0.0690255 26.8301 0.0080559 26.0194L1.61543e-07 25.7778V3.22222C-0.0002571 2.40929 0.306766 1.62631 0.859523 1.03023C1.41228 0.434147 2.16992 0.0690254 2.98056 0.00805574L3.22222 0H16.1111ZM26.1693 0.552611C26.4592 0.263662 26.8483 0.0959038 27.2574 0.0834103C27.6665 0.0709167 28.0651 0.214624 28.3721 0.485345C28.6791 0.756066 28.8716 1.1335 28.9104 1.54099C28.9492 1.94847 28.8315 2.35546 28.5811 2.67928L28.4474 2.83233L12.4974 18.7807C12.2075 19.0697 11.8184 19.2374 11.4093 19.2499C11.0001 19.2624 10.6016 19.1187 10.2946 18.848C9.98753 18.5773 9.79506 18.1998 9.75625 17.7923C9.71743 17.3849 9.83517 16.9779 10.0856 16.6541L10.2193 16.5026L26.1693 0.552611Z" fill="#6BBF59"/>
</svg>
