<svg width="59" height="59" viewBox="0 0 59 59" fill="none" xmlns="http://www.w3.org/2000/svg">
<g id="Group 1">
<circle id="Ellipse 1" cx="29.5" cy="29.5" r="29.5" fill="#D9D9D9"/>
<path id="Vector" d="M29.5 11.0253C32.1475 11.0253 34.6866 12.077 36.5586 13.949C38.4307 15.8211 39.4824 18.3601 39.4824 21.0076C39.4824 23.6551 38.4307 26.1941 36.5586 28.0662C34.6866 29.9382 32.1475 30.9899 29.5 30.9899C26.8526 30.9899 24.3135 29.9382 22.4415 28.0662C20.5694 26.1941 19.5177 23.6551 19.5177 21.0076C19.5177 18.3601 20.5694 15.8211 22.4415 13.949C24.3135 12.077 26.8526 11.0253 29.5 11.0253ZM29.5 35.9811C40.5305 35.9811 49.4647 40.4482 49.4647 45.9634V50.9546C35.9018 62.0074 20.8125 60.4515 9.5354 50.9546V45.9634C9.5354 40.4482 18.4696 35.9811 29.5 35.9811Z" fill="#6BBF59"/>
</g>
</svg>
