<svg width="28" height="32" viewBox="0 0 28 32" fill="none" xmlns="http://www.w3.org/2000/svg">
<path id="Vector" d="M17.0405 6.77083C17.3313 7.06081 17.7256 7.2237 18.1367 7.2237C18.5478 7.2237 18.942 7.06081 19.2329 6.77083L20.7221 5.28425V26.3235C20.7221 26.7342 20.8855 27.128 21.1765 27.4184C21.4674 27.7088 21.8619 27.872 22.2734 27.872C22.6848 27.872 23.0794 27.7088 23.3703 27.4184C23.6612 27.128 23.8246 26.7342 23.8246 26.3235V5.28425L25.3138 6.77083C25.4558 6.92297 25.6271 7.045 25.8174 7.12963C26.0077 7.21427 26.2131 7.25978 26.4214 7.26344C26.6297 7.26711 26.8366 7.22887 27.0297 7.15098C27.2229 7.0731 27.3983 6.95718 27.5457 6.81014C27.693 6.66309 27.8091 6.48794 27.8871 6.29512C27.9651 6.1023 28.0034 5.89577 27.9998 5.68785C27.9961 5.47993 27.9505 5.27488 27.8657 5.08493C27.7809 4.89498 27.6587 4.72402 27.5063 4.58225L23.3696 0.452869C23.0787 0.162882 22.6845 0 22.2734 0C21.8623 0 21.468 0.162882 21.1771 0.452869L17.0405 4.58225C16.75 4.8726 16.5868 5.26618 16.5868 5.67654C16.5868 6.0869 16.75 6.48048 17.0405 6.77083ZM7.27789 26.7158L8.7671 25.2292C8.90911 25.077 9.08037 24.955 9.27066 24.8704C9.46095 24.7857 9.66636 24.7402 9.87465 24.7366C10.0829 24.7329 10.2898 24.7711 10.483 24.849C10.6761 24.9269 10.8516 25.0428 10.9989 25.1899C11.1462 25.3369 11.2623 25.5121 11.3404 25.7049C11.4184 25.8977 11.4567 26.1042 11.453 26.3122C11.4494 26.5201 11.4038 26.7251 11.319 26.9151C11.2342 27.105 11.1119 27.276 10.9595 27.4177L6.82286 31.5471C6.53199 31.8371 6.13772 32 5.72663 32C5.31555 32 4.92127 31.8371 4.63041 31.5471L0.49373 27.4177C0.34132 27.276 0.219077 27.105 0.134291 26.9151C0.0495058 26.7251 0.00391642 26.5201 0.000241422 26.3122C-0.00343358 26.1042 0.0348812 25.8977 0.112901 25.7049C0.190921 25.5121 0.307047 25.3369 0.454352 25.1899C0.601657 25.0428 0.777122 24.9269 0.970281 24.849C1.16344 24.7711 1.37033 24.7329 1.57862 24.7366C1.78691 24.7402 1.99232 24.7857 2.18261 24.8704C2.3729 24.955 2.54416 25.077 2.68617 25.2292L4.17538 26.7158V5.67654C4.17538 5.26585 4.33881 4.87198 4.62973 4.58157C4.92065 4.29117 5.31522 4.12802 5.72663 4.12802C6.13805 4.12802 6.53262 4.29117 6.82354 4.58157C7.11445 4.87198 7.27789 5.26585 7.27789 5.67654V26.7158Z" fill="#6BBF59"/>
</svg>
